<svg xmlns="http://www.w3.org/2000/svg" fill="#979592" viewBox="0 0 32 32" id="user-community"><path d="M13 13h6c.6 0 1-.4 1-1v-2c0-1.3-.6-2.4-1.6-3.2.4-.5.6-1.1.6-1.8 0-1.7-1.3-3-3-3s-3 1.3-3 3c0 .7.2 1.3.6 1.8-1 .8-1.6 1.9-1.6 3.2v2c0 .6.4 1 1 1zm5-2h-4v-1c0-1.1.9-2 2-2s2 .9 2 2v1zm-3-6c0-.6.4-1 1-1s1 .4 1 1-.4 1-1 1-1-.4-1-1zM8.4 23.8c.4-.5.6-1.1.6-1.8 0-1.7-1.3-3-3-3s-3 1.3-3 3c0 .7.2 1.3.6 1.8-1 .8-1.6 1.9-1.6 3.2v2c0 .6.4 1 1 1h6c.6 0 1-.4 1-1v-2c0-1.3-.6-2.4-1.6-3.2zM5 22c0-.6.4-1 1-1s1 .4 1 1-.4 1-1 1-1-.4-1-1zm3 6H4v-1c0-1.1.9-2 2-2s2 .9 2 2v1zm20.4-4.2c.4-.5.6-1.2.6-1.8 0-1.7-1.3-3-3-3s-3 1.3-3 3c0 .7.2 1.3.6 1.8-1 .7-1.6 1.9-1.6 3.2v2c0 .6.4 1 1 1h6c.6 0 1-.4 1-1v-2c0-1.3-.6-2.4-1.6-3.2zM25 22c0-.6.4-1 1-1s1 .4 1 1-.4 1-1 1-1-.4-1-1zm3 6h-4v-1c0-1.1.9-2 2-2s2 .9 2 2v1zm-11-8.5V15c0-.6-.4-1-1-1s-1 .4-1 1v4.5l-4.6 3.7c-.4.3-.5 1-.2 1.4.3.4 1 .5 1.4.2l4.4-3.5 4.4 3.5c.4.3 1.1.3 1.4-.2s.3-1.1-.2-1.4L17 19.5z"></path></svg>